<svg id="Layer_2" data-name="Layer 2" xmlns="http://www.w3.org/2000/svg" xmlns:xlink="http://www.w3.org/1999/xlink" viewBox="0 0 343.32 96.36" class="w-[250px] mb-5"><defs><style>
          .cls-1 {fill: url(#linear-gradient-2);}
          .cls-2 {fill: #fff;}
          .cls-3 {fill: none;}
          .cls-4 {fill: url(#linear-gradient-4);}
          .cls-5 {fill: url(#linear-gradient-3);}
          .cls-6 {fill: url(#linear-gradient);}
          .cls-7 {clip-path: url(#clippath);}
        </style><clipPath id="clippath"><rect class="cls-3" y="5.36" width="342" height="91"></rect></clipPath><linearGradient id="linear-gradient" x1="326" y1="51.29" x2="342.09" y2="51.29" gradientUnits="userSpaceOnUse"><stop offset="0" stop-color="#f37423"></stop><stop offset="1" stop-color="#f05226"></stop></linearGradient><linearGradient id="linear-gradient-2" x1="162.85" y1="49.82" x2="220.83" y2="49.82" gradientUnits="userSpaceOnUse"><stop offset="0" stop-color="#f47421"></stop><stop offset="1" stop-color="#f04f24"></stop></linearGradient><linearGradient id="linear-gradient-3" x1="325.65" y1="10.6" x2="342" y2="10.6" gradientUnits="userSpaceOnUse"><stop offset="0" stop-color="#2e3d96"></stop><stop offset="0" stop-color="#f05424"></stop><stop offset="1" stop-color="#f37421"></stop></linearGradient><linearGradient id="linear-gradient-4" x1="338.42" y1="2.43" x2="343.32" y2="2.43" xlink:href="#linear-gradient-3"></linearGradient></defs><g id="Layer_1-2" data-name="Layer 1"><g class="cls-7"><g><path class="cls-2" d="M49.91,29.73c-.44-.33-.94-.58-1.49-.72l-1.81-18.85c2.36-1.48,7.53-3.26,11.66.2,2.24-1.02,7.51-1.93,10.66,2.63,2.63-1.34,8.59-2.36,11.67,4.05l-.57.3h0s-3.4,11.62-3.4,11.62c-.28-.06-.56-.09-.86-.09-.12,0-.23,0-.34.01l-4.61-16.43-1.23.34,4.59,16.37c-1.18.47-2.09,1.46-2.48,2.68h-20.11v1.28h19.91c0,1.6.88,2.99,2.18,3.72l-4.46,11.41c-.79.06-1.53.35-2.14.79l-16.03-13.86c.34-.61.53-1.31.53-2.06,0-.93-.3-1.79-.8-2.49l17.97-17.84-.9-.91-17.96,17.83ZM81.49,17.37l7.62,14.66c.35-.09.71-.14,1.09-.14,1.12,0,2.14.43,2.9,1.14l5.73-3.62c-2.92-9.45-12.25-11.94-17.33-12.04ZM99.97,30.78l-7.34,23.44c.45.31.83.71,1.13,1.16l16.19-2.98c1.6-6.16-2.28-9.53-4.65-10.49,1.27-7.71-2.62-10.51-5.32-11.12ZM109.51,53.77l-15.21,2.8c.1.36.15.74.15,1.14,0,2.35-1.91,4.26-4.26,4.26-.57,0-1.11-.11-1.6-.31l-2.31,2.15c.47.69.75,1.52.75,2.42,0,2.35-1.91,4.26-4.26,4.26-.14,0-.28,0-.41-.02l-.74,4.85c7.73,7.01,17.74,4.28,21.91,1.93,10.28-6.08,8.08-17.72,5.69-22.78.1-.23.19-.46.27-.69ZM80.25,75.89l.25-1.61-26.86-6.34c-.24,2.13-2.04,3.78-4.23,3.78-.05,0-.11,0-.16,0l-.55,10.27c3.67,3.86,10.39,5.26,13.66,5.48,10.28.85,15.89-6.65,17.89-11.57ZM47.5,80.47l.48-8.99c-.89-.32-1.64-.92-2.15-1.7l-23.59,19.02-.05,1.16c1.87,1.9,4.39,2.92,5.55,3.21,7.01,1.4,10.32-4.97,11.1-8.32,5.61-.12,7.98-3.16,8.47-4.67.06.1.12.2.18.3ZM19.85,89.08l1.14-.92,1.12-26.19c-2.26-.05-4.08-1.86-4.15-4.11l-13.11.67c-7.32,8.59-1.92,16.05,1.71,18.71,0,10.18,8.1,12.15,13.28,11.84ZM3.55,57.32l.65-.03,18.33-18.32s-.04-.09-.05-.13l-18.9,4.31c-6.1,5.97-3.22,11.36-.03,14.18ZM4.99,41.51l17.24-3.93c0-.07,0-.13,0-.2,0-2.35,1.91-4.26,4.26-4.26h0v-15.79c-6.51-.74-10.23,5.82-11.29,9.23-7.65,3.94-9.96,11.36-10.2,14.94ZM27.75,15.69v.26l16.9,13.88c.68-.56,1.53-.91,2.47-.95l-1.79-18.66c-9.71-1.28-15.23,2.42-17.58,5.47ZM27.75,17.6v15.72c.84.26,1.57.79,2.1,1.47l13.24-1.84c.03-.8.29-1.55.7-2.17l-16.05-13.17ZM30.73,37.23c-.01-.44-.09-.85-.23-1.25l12.73-1.77c.47,1.77,2.04,3.09,3.94,3.16l-.71,5c-.16-.02-.32-.03-.48-.03-1.37,0-2.6.65-3.38,1.66l-11.87-6.78ZM47.7,42.71l.78-5.48c.69-.19,1.31-.55,1.81-1.03l15.9,13.74c-.38.5-.65,1.08-.77,1.72l-15.32-4.01c.08-.33.13-.68.13-1.04,0-1.74-1.04-3.23-2.53-3.89ZM49.6,48.83l15.76,4.13c.09.83.42,1.6.92,2.22l-14.14,9.03c-.74-.62-1.69-1-2.74-1-1.52,0-2.86.8-3.61,2l-6.6-2.61c.03-.21.05-.42.05-.63,0-1.1-.42-2.11-1.11-2.87l6.8-8.37c.33.08.68.13,1.04.13,1.53,0,2.88-.81,3.63-2.03ZM53,65.17l14.27-9.11c.67.44,1.47.69,2.32.69,1,0,1.91-.34,2.64-.92l7.39,7.54c-.68.76-1.1,1.76-1.1,2.86,0,1.76,1.07,3.28,2.6,3.92l-.44,2.86-27.11-6.4c-.11-.52-.31-1.01-.58-1.45ZM80.61,62.56l-7.51-7.66c.47-.68.75-1.51.75-2.41,0-1.02-.36-1.96-.96-2.7l14.08-10.88c.78.9,1.94,1.48,3.22,1.48,2.35,0,4.26-1.91,4.26-4.26,0-.77-.2-1.49-.56-2.11l4.64-2.94-7.07,22.56c-.4-.13-.83-.19-1.27-.19-2.35,0-4.26,1.91-4.26,4.26,0,1.31.59,2.48,1.52,3.26l-2.05,1.91c-.72-.57-1.64-.91-2.63-.91-.79,0-1.53.22-2.17.59ZM86.29,37.84l-14.36,11.09c-.41-.27-.86-.47-1.35-.58l4.32-11.06c.28.06.58.09.88.09,2.01,0,3.69-1.39,4.14-3.25l6.2.8c-.11.39-.18.79-.18,1.22,0,.6.13,1.18.35,1.7ZM86.7,33.72l-6.67-.86c-.09-1.49-.95-2.77-2.19-3.46l3.05-10.43,7.05,13.57c-.49.31-.91.71-1.23,1.18ZM38.82,63.83l6.47,2.55c-.09.35-.14.71-.14,1.08s.05.75.14,1.1l-22.98,18.53,1.09-25.29c1.07-.31,1.96-1.02,2.51-1.96l4.83,1.97c0,.05,0,.11,0,.16,0,2.35,1.91,4.26,4.26,4.26,1.69,0,3.14-.98,3.83-2.4ZM30.98,60.53l-4.61-1.88c.07-.3.1-.62.1-.94,0-.47-.08-.93-.22-1.36l16.24-7.3c.33.46.74.85,1.22,1.15l-6.57,8.09c-.63-.37-1.37-.59-2.16-.59-1.85,0-3.42,1.17-4.01,2.82ZM41.93,47.92l-16.26,7.3c-.77-1.07-2.03-1.76-3.45-1.76-1.96,0-3.61,1.32-4.1,3.12l-12.02.61,17.11-17.09c.78.94,1.96,1.54,3.28,1.54,1.93,0,3.55-1.28,4.08-3.04l11.43,6.52c-.17.46-.26.96-.26,1.48,0,.46.07.9.21,1.32Z"></path><path class="cls-2" d="M269,78.36V5.25h16.04v73.11h-16.04ZM306.14,78.36v-30.23c0-6.27-.8-10.52-2.39-12.75-1.56-2.23-3.93-3.34-7.11-3.34s-6.13,1.35-8.45,4.06c-2.29,2.71-3.44,6.22-3.44,10.55l-7.78-3.58c0-5,2.37-9.91,7.11-14.75,4.74-4.87,10.95-7.3,18.62-7.3s12.35,2.39,15.18,7.16c2.86,4.74,4.3,11.14,4.3,19.19v30.99h-16.04Z"></path><path class="cls-6" d="M326,78.36V24.22h16.09v54.14h-16.09Z"></path><path class="cls-6" d="M184.67,78.68c-3.44,0-6.51-.27-9.21-.81-2.67-.57-4.95-1.53-6.83-2.86-1.88-1.34-3.31-3.13-4.3-5.39-.99-2.26-1.48-5.08-1.48-8.45s.46-5.9,1.38-8.07c.96-2.16,2.34-3.9,4.15-5.2,1.85-1.34,4.12-2.29,6.83-2.86,2.71-.6,5.82-.91,9.36-.91h17.85v-2.15c0-2.55-.46-4.55-1.38-6.01-.89-1.5-2.2-2.58-3.91-3.25-1.72-.67-3.76-1-6.11-1-1.88,0-3.63.3-5.25.91-1.59.57-2.96,1.54-4.11,2.91-1.15,1.37-1.96,3.21-2.43,5.54l-15.71-4.34c.67-2.93,1.85-5.39,3.53-7.4,1.72-2.04,3.8-3.66,6.25-4.87,2.45-1.21,5.17-2.08,8.16-2.63,3.02-.57,6.17-.86,9.45-.86,6.01,0,11.07.72,15.18,2.15,4.1,1.43,7.21,3.76,9.31,6.97,2.1,3.18,3.15,7.41,3.15,12.7v35.58h-13.56l-1.19-6.74c-.51.86-1.34,1.7-2.48,2.53-1.15.83-2.54,1.59-4.2,2.29-1.65.67-3.53,1.21-5.63,1.62-2.1.41-4.38.62-6.83.62ZM188.3,68.42c2.2,0,4.23-.25,6.11-.76,1.88-.51,3.48-1.18,4.82-2,1.37-.86,2.35-1.77,2.96-2.72v-10.12h-13.8c-1.4,0-2.67.11-3.82.33-1.15.19-2.13.56-2.96,1.1-.8.54-1.42,1.32-1.86,2.34-.41,1.02-.62,2.34-.62,3.96s.22,2.94.67,3.96c.45,1.02,1.08,1.81,1.91,2.39.83.54,1.8.94,2.91,1.19,1.11.22,2.34.33,3.68.33Z"></path><path class="cls-2" d="M249.93,78.82c-5.03,0-9.29-1.07-12.79-3.2-3.47-2.13-5.2-5.95-5.2-11.46v-31.6h-12.94v-11.03h12.94v-13.18h16.09v13.18h17.42v11.03h-17.42v28.07c0,3.06.65,5.06,1.96,6.01,1.3.95,3.12,1.43,5.44,1.43s4.66-.4,6.92-1.19v10.6c-3.95.89-8.08,1.34-12.41,1.34Z"></path><path class="cls-2" d="M176.38,5.67l-24.31,45.37v27.32h-15.19v-27.32L111.73,5.67h17.9l15.09,31.66,14.45-31.66h17.21Z"></path><path class="cls-2" d="M336.66,93.92c.64,0,1.17-.07,1.57-.21.76-.27,1.14-.78,1.14-1.51,0-.43-.19-.76-.57-1-.38-.23-.97-.43-1.78-.61l-1.38-.31c-1.36-.31-2.3-.64-2.82-1-.88-.6-1.32-1.54-1.32-2.82,0-1.17.43-2.14,1.27-2.91.85-.77,2.1-1.16,3.75-1.16,1.38,0,2.55.37,3.51,1.1.97.73,1.49,1.78,1.53,3.17h-2.62c-.05-.79-.39-1.34-1.03-1.67-.42-.22-.95-.33-1.58-.33-.7,0-1.26.14-1.68.42-.42.28-.63.68-.63,1.19,0,.47.21.81.62,1.04.27.15.83.33,1.7.54l2.25.54c.99.24,1.73.55,2.23.95.78.61,1.17,1.5,1.17,2.67s-.46,2.18-1.37,2.97c-.91.79-2.2,1.18-3.86,1.18s-3.04-.39-4.01-1.16c-.97-.78-1.46-1.85-1.46-3.21h2.6c.08.6.25,1.04.49,1.34.44.54,1.2.81,2.28.81Z"></path><path class="cls-2" d="M316.68,95.81h-2.73l-5.33-9.27v9.27h-2.54v-13.05h2.86l5.2,9.11v-9.11h2.54v13.05Z"></path><path class="cls-2" d="M285.09,96.17c-1.87,0-3.29-.51-4.28-1.52-1.32-1.25-1.98-3.04-1.98-5.38s.66-4.19,1.98-5.38c.99-1.02,2.41-1.52,4.28-1.52s3.29.51,4.28,1.52c1.32,1.2,1.98,2.99,1.98,5.38s-.66,4.14-1.98,5.38c-.99,1.02-2.41,1.52-4.28,1.52ZM287.67,92.67c.63-.8.95-1.93.95-3.4s-.32-2.59-.96-3.39c-.63-.8-1.49-1.2-2.57-1.2s-1.94.4-2.59,1.2c-.64.8-.96,1.93-.96,3.4s.32,2.6.96,3.4c.64.8,1.51,1.2,2.59,1.2s1.94-.4,2.58-1.2Z"></path><path class="cls-2" d="M261.37,82.76h2.71v13.05h-2.71v-13.05Z"></path><path class="cls-2" d="M247.28,82.76v2.31h-3.9v10.74h-2.74v-10.74h-3.92v-2.31h10.57Z"></path><path class="cls-2" d="M219.72,90.78v-8.02h2.77v8.02c0,1.39-.22,2.47-.65,3.24-.8,1.42-2.33,2.12-4.6,2.12s-3.8-.71-4.6-2.12c-.43-.77-.65-1.85-.65-3.24v-8.02h2.77v8.02c0,.9.11,1.55.32,1.97.33.73,1.05,1.1,2.16,1.1s1.82-.37,2.15-1.1c.21-.41.32-1.07.32-1.97Z"></path><path class="cls-2" d="M188.22,82.76h2.73v10.7h6.46v2.35h-9.19v-13.05Z"></path><path class="cls-2" d="M167.19,96.17c-1.87,0-3.29-.51-4.28-1.52-1.32-1.25-1.98-3.04-1.98-5.38s.66-4.19,1.98-5.38c.99-1.02,2.41-1.52,4.28-1.52s3.29.51,4.28,1.52c1.32,1.2,1.97,2.99,1.97,5.38s-.66,4.14-1.97,5.38c-.99,1.02-2.41,1.52-4.28,1.52ZM169.77,92.67c.63-.8.95-1.93.95-3.4s-.32-2.59-.96-3.39c-.63-.8-1.49-1.2-2.57-1.2s-1.94.4-2.59,1.2c-.64.8-.96,1.93-.96,3.4s.32,2.6.96,3.4c.64.8,1.51,1.2,2.59,1.2s1.94-.4,2.58-1.2Z"></path><path class="cls-2" d="M141.37,93.92c.64,0,1.17-.07,1.57-.21.76-.27,1.14-.78,1.14-1.51,0-.43-.19-.76-.57-1-.38-.23-.97-.43-1.78-.61l-1.38-.31c-1.36-.31-2.3-.64-2.82-1-.88-.6-1.32-1.54-1.32-2.82,0-1.17.43-2.14,1.28-2.91.85-.77,2.1-1.16,3.74-1.16,1.38,0,2.55.37,3.51,1.1.97.73,1.49,1.78,1.53,3.17h-2.62c-.05-.79-.39-1.34-1.03-1.67-.43-.22-.95-.33-1.59-.33-.7,0-1.26.14-1.68.42-.42.28-.63.68-.63,1.19,0,.47.21.81.62,1.04.26.15.83.33,1.7.54l2.25.54c.99.24,1.73.55,2.23.95.78.61,1.17,1.5,1.17,2.67s-.46,2.18-1.37,2.97c-.91.79-2.2,1.18-3.86,1.18s-3.04-.39-4.01-1.16c-.97-.78-1.46-1.85-1.46-3.21h2.6c.08.6.25,1.04.49,1.34.44.54,1.2.81,2.28.81Z"></path></g></g><g><path class="cls-5" d="M333.49,18.74c-.62-3.31-1.63-5.83-4.98-7.07-.74-.27-1.59-.34-2.32-.61-.2-.08-.69-.07-.49-.47s3-1.02,3.74-1.37c1.66-.79,2.43-1.78,3.12-3.46.27-.65.84-3.32,1.29-3.33.96,2.1,1.04,4.25,2.92,5.84,1.62,1.37,3.46,1.36,5.24,2.31-2.9,1.43-5.33,1.2-6.86,4.58-.43.94-.58,2.44-.98,3.16-.18.32-.26.5-.68.41Z"></path><path class="cls-4" d="M343.32,2.67c-1.8-.19-1.79,1.18-2.68,2.19-.02-1.43-.84-1.64-1.85-2.17-.25-.13-.46.13-.35-.51,1.57.15,1.93-.95,2.31-2.19.47.43.41,1.11.84,1.59.52.58,1.36.42,1.71,1.08Z"></path></g></g></svg>